<?xml version="1.0" encoding="UTF-8" standalone="no"?><svg xmlns="http://www.w3.org/2000/svg" xmlns:xlink="http://www.w3.org/1999/xlink" contentScriptType="application/ecmascript" contentStyleType="text/css" height="865px" preserveAspectRatio="none" style="width:1055px;height:865px;" version="1.1" viewBox="0 0 1055 865" width="1055px" zoomAndPan="magnify"><defs/><g><text fill="#000000" font-family="sans-serif" font-size="18" lengthAdjust="spacingAndGlyphs" textLength="584" x="238.5" y="16.708">Digital restaurant system (monolith-rest) - Backend - Components</text><!--cluster Backend--><polygon fill="#FFFFFF" points="141.5,202.9531,214.5,202.9531,221.5,225.25,903.5,225.25,903.5,853.9531,141.5,853.9531,141.5,202.9531" style="stroke: #000000; stroke-width: 1.5;"/><line style="stroke: #000000; stroke-width: 1.5;" x1="141.5" x2="221.5" y1="225.25" y2="225.25"/><text fill="#000000" font-family="sans-serif" font-size="14" font-weight="bold" lengthAdjust="spacingAndGlyphs" textLength="67" x="145.5" y="217.9482">Backend</text><text fill="#000000" font-family="sans-serif" font-size="14" font-style="italic" lengthAdjust="spacingAndGlyphs" textLength="85" x="484" y="240.2451">«Container»</text><!--entity 14--><rect fill="#DDDDDD" height="76.8906" style="stroke: #707070; stroke-width: 1.5;" width="167" x="411" y="760.9531"/><text fill="#000000" font-family="sans-serif" font-size="14" font-style="italic" lengthAdjust="spacingAndGlyphs" textLength="106" x="441.5" y="783.9482">«Spring, Axon»</text><text fill="#000000" font-family="sans-serif" font-size="14" lengthAdjust="spacingAndGlyphs" textLength="50" x="421" y="800.2451">Courier</text><line style="stroke: #707070; stroke-width: 1.0;" x1="412" x2="577" y1="803.5469" y2="803.5469"/><text fill="#000000" font-family="sans-serif" font-size="14" lengthAdjust="spacingAndGlyphs" textLength="135" x="427" y="820.542">domain component</text><!--entity 16--><rect fill="#DDDDDD" height="76.8906" style="stroke: #707070; stroke-width: 1.5;" width="167" x="158" y="760.9531"/><text fill="#000000" font-family="sans-serif" font-size="14" font-style="italic" lengthAdjust="spacingAndGlyphs" textLength="106" x="188.5" y="783.9482">«Spring, Axon»</text><text fill="#000000" font-family="sans-serif" font-size="14" lengthAdjust="spacingAndGlyphs" textLength="68" x="168" y="800.2451">Customer</text><line style="stroke: #707070; stroke-width: 1.0;" x1="159" x2="324" y1="803.5469" y2="803.5469"/><text fill="#000000" font-family="sans-serif" font-size="14" lengthAdjust="spacingAndGlyphs" textLength="135" x="174" y="820.542">domain component</text><!--entity 20--><rect fill="#DDDDDD" height="76.8906" style="stroke: #707070; stroke-width: 1.5;" width="167" x="462" y="591.9531"/><text fill="#000000" font-family="sans-serif" font-size="14" font-style="italic" lengthAdjust="spacingAndGlyphs" textLength="106" x="492.5" y="614.9482">«Spring, Axon»</text><text fill="#000000" font-family="sans-serif" font-size="14" lengthAdjust="spacingAndGlyphs" textLength="39" x="472" y="631.2451">Order</text><line style="stroke: #707070; stroke-width: 1.0;" x1="463" x2="628" y1="634.5469" y2="634.5469"/><text fill="#000000" font-family="sans-serif" font-size="14" lengthAdjust="spacingAndGlyphs" textLength="135" x="478" y="651.542">domain component</text><!--entity 18--><rect fill="#DDDDDD" height="76.8906" style="stroke: #707070; stroke-width: 1.5;" width="167" x="720" y="760.9531"/><text fill="#000000" font-family="sans-serif" font-size="14" font-style="italic" lengthAdjust="spacingAndGlyphs" textLength="106" x="750.5" y="783.9482">«Spring, Axon»</text><text fill="#000000" font-family="sans-serif" font-size="14" lengthAdjust="spacingAndGlyphs" textLength="76" x="730" y="800.2451">Restaurant</text><line style="stroke: #707070; stroke-width: 1.0;" x1="721" x2="886" y1="803.5469" y2="803.5469"/><text fill="#000000" font-family="sans-serif" font-size="14" lengthAdjust="spacingAndGlyphs" textLength="135" x="736" y="820.542">domain component</text><!--entity 37--><rect fill="#DDDDDD" height="76.8906" style="stroke: #707070; stroke-width: 1.5;" width="211" x="436" y="253.9531"/><text fill="#000000" font-family="sans-serif" font-size="14" font-style="italic" lengthAdjust="spacingAndGlyphs" textLength="142" x="470.5" y="276.9482">«Spring MVC, Axon»</text><text fill="#000000" font-family="sans-serif" font-size="14" lengthAdjust="spacingAndGlyphs" textLength="148" x="446" y="293.2451">Web - Command side</text><line style="stroke: #707070; stroke-width: 1.0;" x1="437" x2="646" y1="296.5469" y2="296.5469"/><text fill="#000000" font-family="sans-serif" font-size="14" lengthAdjust="spacingAndGlyphs" textLength="179" x="452" y="313.542">web component / adapter</text><!--entity 28--><rect fill="#DDDDDD" height="76.8906" style="stroke: #707070; stroke-width: 1.5;" width="211" x="260" y="422.9531"/><text fill="#000000" font-family="sans-serif" font-size="14" font-style="italic" lengthAdjust="spacingAndGlyphs" textLength="183" x="274" y="445.9482">«Spring Data REST, Axon»</text><text fill="#000000" font-family="sans-serif" font-size="14" lengthAdjust="spacingAndGlyphs" textLength="118" x="270" y="462.2451">Web - Query side</text><line style="stroke: #707070; stroke-width: 1.0;" x1="261" x2="470" y1="465.5469" y2="465.5469"/><text fill="#000000" font-family="sans-serif" font-size="14" lengthAdjust="spacingAndGlyphs" textLength="179" x="276" y="482.542">web component / adapter</text><!--entity 2--><ellipse cx="38.5" cy="55.25" fill="#DDDDDD" rx="8" ry="8" style="stroke: #707070; stroke-width: 2.0;"/><path d="M38.5,63.25 L38.5,90.25 M25.5,71.25 L51.5,71.25 M38.5,90.25 L25.5,105.25 M38.5,90.25 L51.5,105.25 " fill="none" style="stroke: #707070; stroke-width: 2.0;"/><text fill="#000000" font-family="sans-serif" font-size="14" lengthAdjust="spacingAndGlyphs" textLength="50" x="13.5" y="121.2451">Courier</text><text fill="#000000" font-family="sans-serif" font-size="14" font-style="italic" lengthAdjust="spacingAndGlyphs" textLength="65" x="6" y="41.9482">«Person»</text><path d="M106.5,64.4531 L106.5,72.9531 L71.1562,76.9531 L106.5,80.9531 L106.5,89.5859 A0,0 0 0 0 106.5,89.5859 L274.5,89.5859 A0,0 0 0 0 274.5,89.5859 L274.5,74.4531 L264.5,64.4531 L106.5,64.4531 A0,0 0 0 0 106.5,64.4531 " fill="#FFFFFF" style="stroke: #707070; stroke-width: 1.0;"/><path d="M264.5,64.4531 L264.5,74.4531 L274.5,74.4531 L264.5,64.4531 " fill="#FFFFFF" style="stroke: #707070; stroke-width: 1.0;"/><text fill="#000000" font-family="sans-serif" font-size="13" lengthAdjust="spacingAndGlyphs" textLength="147" x="112.5" y="81.52">hero, who delivers food</text><!--entity 1--><ellipse cx="358.5" cy="55.25" fill="#DDDDDD" rx="8" ry="8" style="stroke: #707070; stroke-width: 2.0;"/><path d="M358.5,63.25 L358.5,90.25 M345.5,71.25 L371.5,71.25 M358.5,90.25 L345.5,105.25 M358.5,90.25 L371.5,105.25 " fill="none" style="stroke: #707070; stroke-width: 2.0;"/><text fill="#000000" font-family="sans-serif" font-size="14" lengthAdjust="spacingAndGlyphs" textLength="68" x="324.5" y="121.2451">Customer</text><text fill="#000000" font-family="sans-serif" font-size="14" font-style="italic" lengthAdjust="spacingAndGlyphs" textLength="65" x="326" y="41.9482">«Person»</text><path d="M427.5,64.4531 L427.5,72.9531 L392.938,76.9531 L427.5,80.9531 L427.5,89.5859 A0,0 0 0 0 427.5,89.5859 L521.5,89.5859 A0,0 0 0 0 521.5,89.5859 L521.5,74.4531 L511.5,64.4531 L427.5,64.4531 A0,0 0 0 0 427.5,64.4531 " fill="#FFFFFF" style="stroke: #707070; stroke-width: 1.0;"/><path d="M511.5,64.4531 L511.5,74.4531 L521.5,74.4531 L511.5,64.4531 " fill="#FFFFFF" style="stroke: #707070; stroke-width: 1.0;"/><text fill="#000000" font-family="sans-serif" font-size="13" lengthAdjust="spacingAndGlyphs" textLength="73" x="433.5" y="81.52">orders food</text><!--entity 3--><ellipse cx="724.5" cy="55.25" fill="#DDDDDD" rx="8" ry="8" style="stroke: #707070; stroke-width: 2.0;"/><path d="M724.5,63.25 L724.5,90.25 M711.5,71.25 L737.5,71.25 M724.5,90.25 L711.5,105.25 M724.5,90.25 L737.5,105.25 " fill="none" style="stroke: #707070; stroke-width: 2.0;"/><text fill="#000000" font-family="sans-serif" font-size="14" lengthAdjust="spacingAndGlyphs" textLength="141" x="654" y="121.2451">Restaurant manager</text><text fill="#000000" font-family="sans-serif" font-size="14" font-style="italic" lengthAdjust="spacingAndGlyphs" textLength="65" x="692" y="41.9482">«Person»</text><path d="M830,56.9531 L830,72.9531 L795.305,76.9531 L830,80.9531 L830,97.2188 A0,0 0 0 0 830,97.2188 L1043,97.2188 A0,0 0 0 0 1043,97.2188 L1043,66.9531 L1033,56.9531 L830,56.9531 A0,0 0 0 0 830,56.9531 " fill="#FFFFFF" style="stroke: #707070; stroke-width: 1.0;"/><path d="M1033,56.9531 L1033,66.9531 L1043,66.9531 L1033,56.9531 " fill="#FFFFFF" style="stroke: #707070; stroke-width: 1.0;"/><text fill="#000000" font-family="sans-serif" font-size="13" lengthAdjust="spacingAndGlyphs" textLength="192" x="836" y="74.02">takes the order and organizes</text><text fill="#000000" font-family="sans-serif" font-size="13" lengthAdjust="spacingAndGlyphs" textLength="74" x="836" y="89.1528">preparation</text><!--link 2 to 37--><path d="M71.1949,112.6591 C76.6516,117.2401 82.4996,121.5261 88.5,124.9531 C174.119,173.8461 204.479,169.4041 301.5,186.9531 C348.427,195.4411 363.722,178.5491 408.5,194.9531 C441.682,207.1091 473.892,230.0951 498.302,250.5841 " fill="none" id="2-37" style="stroke: #707070; stroke-width: 1.0; stroke-dasharray: 7.0,7.0;"/><polygon fill="#707070" points="502.152,253.8491,497.8762,244.9769,498.339,250.6147,492.7011,251.0776,502.152,253.8491" style="stroke: #707070; stroke-width: 1.0;"/><text fill="#000000" font-family="sans-serif" font-size="13" lengthAdjust="spacingAndGlyphs" textLength="84" x="309" y="168.02">«REST/HTTP»</text><text fill="#000000" font-family="sans-serif" font-size="13" lengthAdjust="spacingAndGlyphs" textLength="97" x="302.5" y="183.1528">claim the order</text><!--link 2 to 28--><path d="M31.7955,124.9911 C26.6184,179.9681 26.6264,271.0341 71.5,330.9531 C115.244,389.3641 191.072,421.8961 254.761,439.7441 " fill="none" id="2-28" style="stroke: #707070; stroke-width: 1.0; stroke-dasharray: 7.0,7.0;"/><polygon fill="#707070" points="259.714,441.1091,252.1022,434.8593,254.8941,439.7792,249.9743,442.5711,259.714,441.1091" style="stroke: #707070; stroke-width: 1.0;"/><text fill="#000000" font-family="sans-serif" font-size="13" lengthAdjust="spacingAndGlyphs" textLength="84" x="106" y="289.52">«REST/HTTP»</text><text fill="#000000" font-family="sans-serif" font-size="13" lengthAdjust="spacingAndGlyphs" textLength="151" x="72.5" y="304.6528">read courier projections</text><!--link 1 to 37--><path d="M387.41,125.1191 C400.318,144.9061 416.264,167.7331 432.5,186.9531 C451.294,209.2011 474.304,231.8191 494.33,250.2961 " fill="none" id="1-37" style="stroke: #707070; stroke-width: 1.0; stroke-dasharray: 7.0,7.0;"/><polygon fill="#707070" points="498.294,253.9351,494.3681,244.9026,494.6103,250.5542,488.9586,250.7965,498.294,253.9351" style="stroke: #707070; stroke-width: 1.0;"/><text fill="#000000" font-family="sans-serif" font-size="13" lengthAdjust="spacingAndGlyphs" textLength="84" x="433.5" y="168.02">«REST/HTTP»</text><text fill="#000000" font-family="sans-serif" font-size="13" lengthAdjust="spacingAndGlyphs" textLength="66" x="442.5" y="183.1528">order food</text><!--link 1 to 28--><path d="M324.402,102.3721 C298.091,123.4821 263.701,156.5921 248.5,194.9531 C226.232,251.1461 226.791,274.5421 248.5,330.9531 C261.722,365.3111 288.748,396.2261 313.497,419.2271 " fill="none" id="1-28" style="stroke: #707070; stroke-width: 1.0; stroke-dasharray: 7.0,7.0;"/><polygon fill="#707070" points="317.447,422.8501,313.5174,413.8192,313.7619,419.4707,308.1104,419.7153,317.447,422.8501" style="stroke: #707070; stroke-width: 1.0;"/><text fill="#000000" font-family="sans-serif" font-size="13" lengthAdjust="spacingAndGlyphs" textLength="84" x="291.5" y="289.52">«REST/HTTP»</text><text fill="#000000" font-family="sans-serif" font-size="13" lengthAdjust="spacingAndGlyphs" textLength="168" x="249.5" y="304.6528">read customer projections</text><!--link 20 to 14--><path d="M467.564,668.9931 C457.103,677.3811 447.818,687.3201 441.5,698.9531 C431.338,717.6621 439.383,738.4381 451.995,756.1451 " fill="none" id="20-14" style="stroke: #707070; stroke-width: 1.0; stroke-dasharray: 7.0,7.0;"/><polygon fill="#707070" points="455.292,760.5771,453.1293,750.9686,452.3076,756.5655,446.7107,755.7437,455.292,760.5771" style="stroke: #707070; stroke-width: 1.0;"/><text fill="#000000" font-family="sans-serif" font-size="13" lengthAdjust="spacingAndGlyphs" textLength="59" x="442.5" y="712.02">«events»</text><text fill="#000000" font-family="sans-serif" font-size="13" lengthAdjust="spacingAndGlyphs" textLength="34" x="455" y="727.1528">listen</text><!--link 20 to 14--><path d="M533.927,669.3481 C526.07,695.0771 515.668,729.1401 507.521,755.8171 " fill="none" id="20-14" style="stroke: #707070; stroke-width: 1.0; stroke-dasharray: 7.0,7.0;"/><polygon fill="#707070" points="506.027,760.7081,512.481,753.2686,507.4872,755.9261,504.8297,750.9323,506.027,760.7081" style="stroke: #707070; stroke-width: 1.0;"/><text fill="#000000" font-family="sans-serif" font-size="13" lengthAdjust="spacingAndGlyphs" textLength="88" x="526.5" y="712.02">«commands»</text><text fill="#000000" font-family="sans-serif" font-size="13" lengthAdjust="spacingAndGlyphs" textLength="31" x="555" y="727.1528">send</text><!--link 20 to 16--><path d="M461.847,660.6551 C424.648,674.1901 385.464,689.3651 368.5,698.9531 C339.571,715.3041 310.18,737.8691 286.968,757.3771 " fill="none" id="20-16" style="stroke: #707070; stroke-width: 1.0; stroke-dasharray: 7.0,7.0;"/><polygon fill="#707070" points="283.003,760.7301,292.4583,757.9738,286.8212,757.5019,287.2931,751.8648,283.003,760.7301" style="stroke: #707070; stroke-width: 1.0;"/><text fill="#000000" font-family="sans-serif" font-size="13" lengthAdjust="spacingAndGlyphs" textLength="59" x="369.5" y="712.02">«events»</text><text fill="#000000" font-family="sans-serif" font-size="13" lengthAdjust="spacingAndGlyphs" textLength="34" x="382" y="727.1528">listen</text><!--link 20 to 16--><path d="M461.732,661.5681 C452.609,664.3031 443.405,666.8351 434.5,668.9531 C388.425,679.9121 254.543,663.1851 223.5,698.9531 C210.029,714.4751 212.644,736.6111 219.45,756.0641 " fill="none" id="20-16" style="stroke: #707070; stroke-width: 1.0; stroke-dasharray: 7.0,7.0;"/><polygon fill="#707070" points="221.263,760.9461,221.8808,751.1167,219.5229,756.2587,214.3809,753.9008,221.263,760.9461" style="stroke: #707070; stroke-width: 1.0;"/><text fill="#000000" font-family="sans-serif" font-size="13" lengthAdjust="spacingAndGlyphs" textLength="88" x="224.5" y="712.02">«commands»</text><text fill="#000000" font-family="sans-serif" font-size="13" lengthAdjust="spacingAndGlyphs" textLength="31" x="253" y="727.1528">send</text><!--link 20 to 18--><path d="M629.046,638.9841 C674.736,647.1301 729.416,664.0151 766.5,698.9531 C782.329,713.8661 791.427,736.1711 796.636,755.8851 " fill="none" id="20-18" style="stroke: #707070; stroke-width: 1.0; stroke-dasharray: 7.0,7.0;"/><polygon fill="#707070" points="797.878,760.8351,799.567,751.1322,796.661,755.9855,791.8076,753.0794,797.878,760.8351" style="stroke: #707070; stroke-width: 1.0;"/><text fill="#000000" font-family="sans-serif" font-size="13" lengthAdjust="spacingAndGlyphs" textLength="59" x="788.5" y="712.02">«events»</text><text fill="#000000" font-family="sans-serif" font-size="13" lengthAdjust="spacingAndGlyphs" textLength="34" x="801" y="727.1528">listen</text><!--link 20 to 18--><path d="M587.319,669.0711 C610.348,688.7921 639.977,712.5941 668.5,730.9531 C683.605,740.6761 700.302,750.0321 716.654,758.5201 " fill="none" id="20-18" style="stroke: #707070; stroke-width: 1.0; stroke-dasharray: 7.0,7.0;"/><polygon fill="#707070" points="721.255,760.8911,715.0858,753.2139,716.81,758.6015,711.4224,760.3258,721.255,760.8911" style="stroke: #707070; stroke-width: 1.0;"/><text fill="#000000" font-family="sans-serif" font-size="13" lengthAdjust="spacingAndGlyphs" textLength="88" x="669.5" y="712.02">«commands»</text><text fill="#000000" font-family="sans-serif" font-size="13" lengthAdjust="spacingAndGlyphs" textLength="31" x="698" y="727.1528">send</text><!--link 3 to 37--><path d="M684.113,125.0711 C652.123,162.3931 607.86,214.0331 577.166,249.8421 " fill="none" id="3-37" style="stroke: #707070; stroke-width: 1.0; stroke-dasharray: 7.0,7.0;"/><polygon fill="#707070" points="573.867,253.6921,582.7617,249.4631,577.1214,249.8962,576.6883,244.256,573.867,253.6921" style="stroke: #707070; stroke-width: 1.0;"/><text fill="#000000" font-family="sans-serif" font-size="13" lengthAdjust="spacingAndGlyphs" textLength="84" x="671" y="168.02">«REST/HTTP»</text><text fill="#000000" font-family="sans-serif" font-size="13" lengthAdjust="spacingAndGlyphs" textLength="113" x="656.5" y="183.1528">prepare the order</text><!--link 3 to 28--><path d="M766.304,125.1251 C778.011,143.9101 785.787,166.0101 778.5,186.9531 C751.677,264.0481 727.848,279.4741 664.5,330.9531 C609.309,375.8031 536.218,407.8341 476.118,428.8191 " fill="none" id="3-28" style="stroke: #707070; stroke-width: 1.0; stroke-dasharray: 7.0,7.0;"/><polygon fill="#707070" points="471.081,430.5631,480.8943,431.3993,475.806,428.9277,478.2776,423.8393,471.081,430.5631" style="stroke: #707070; stroke-width: 1.0;"/><text fill="#000000" font-family="sans-serif" font-size="13" lengthAdjust="spacingAndGlyphs" textLength="84" x="821.5" y="289.52">«REST/HTTP»</text><text fill="#000000" font-family="sans-serif" font-size="13" lengthAdjust="spacingAndGlyphs" textLength="174" x="776.5" y="304.6528">read restaurant projections</text><!--link 37 to 14--><path d="M579.475,331.0851 C601.52,355.2491 627.767,388.4761 642.5,422.9531 C664.21,473.7581 639.858,629.4651 678.5,668.9531 C734.611,726.2931 804.699,637.6911 856.5,698.9531 C865.683,709.8131 865.588,720.0131 856.5,730.9531 C855.394,732.2841 689.989,762.7291 583.172,782.2716 " fill="none" id="37-14" style="stroke: #707070; stroke-width: 1.0; stroke-dasharray: 7.0,7.0;"/><polygon fill="#707070" points="578.131,783.1938,587.704,785.5085,583.0493,782.2938,586.264,777.6392,578.131,783.1938" style="stroke: #707070; stroke-width: 1.0;"/><text fill="#000000" font-family="sans-serif" font-size="13" lengthAdjust="spacingAndGlyphs" textLength="88" x="656.5" y="543.02">«commands»</text><text fill="#000000" font-family="sans-serif" font-size="13" lengthAdjust="spacingAndGlyphs" textLength="31" x="685" y="558.1528">send</text><!--link 37 to 16--><path d="M435.864,330.6371 C362.269,358.1111 272.183,395.3741 242.5,422.9531 C141.104,517.1631 152.495,599.7281 196.5,730.9531 C199.409,739.6291 203.74,748.2481 208.584,756.2811 " fill="none" id="37-16" style="stroke: #707070; stroke-width: 1.0; stroke-dasharray: 7.0,7.0;"/><polygon fill="#707070" points="211.322,760.6801,209.9626,750.9255,208.6801,756.4351,203.1705,755.1526,211.322,760.6801" style="stroke: #707070; stroke-width: 1.0;"/><text fill="#000000" font-family="sans-serif" font-size="13" lengthAdjust="spacingAndGlyphs" textLength="88" x="171.5" y="543.02">«commands»</text><text fill="#000000" font-family="sans-serif" font-size="13" lengthAdjust="spacingAndGlyphs" textLength="31" x="200" y="558.1528">send</text><!--link 37 to 20--><path d="M541.947,331.0181 C542.697,394.0221 544.204,520.5801 544.992,586.8211 " fill="none" id="37-20" style="stroke: #707070; stroke-width: 1.0; stroke-dasharray: 7.0,7.0;"/><polygon fill="#707070" points="545.053,591.8731,548.9447,582.8258,544.993,586.8735,540.9453,582.9218,545.053,591.8731" style="stroke: #707070; stroke-width: 1.0;"/><text fill="#000000" font-family="sans-serif" font-size="13" lengthAdjust="spacingAndGlyphs" textLength="88" x="545.5" y="458.52">«commands»</text><text fill="#000000" font-family="sans-serif" font-size="13" lengthAdjust="spacingAndGlyphs" textLength="31" x="574" y="473.6528">send</text><!--link 37 to 18--><path d="M610.929,330.9741 C691.77,379.1421 820.923,471.1291 873.5,591.9531 C898.173,648.6531 893.144,674.6861 867.5,730.9531 C863.299,740.1721 857.313,748.9261 850.67,756.8891 " fill="none" id="37-18" style="stroke: #707070; stroke-width: 1.0; stroke-dasharray: 7.0,7.0;"/><polygon fill="#707070" points="847.361,760.7341,856.2643,756.5233,850.6232,756.9449,850.2016,751.3038,847.361,760.7341" style="stroke: #707070; stroke-width: 1.0;"/><text fill="#000000" font-family="sans-serif" font-size="13" lengthAdjust="spacingAndGlyphs" textLength="88" x="857.5" y="543.02">«commands»</text><text fill="#000000" font-family="sans-serif" font-size="13" lengthAdjust="spacingAndGlyphs" textLength="31" x="886" y="558.1528">send</text><!--link 37 to 28--><path d="M499.789,331.0531 C489.192,340.7271 477.872,351.1691 467.5,360.9531 C447.424,379.8911 425.475,401.2191 407.098,419.2581 " fill="none" id="37-28" style="stroke: #707070; stroke-width: 1.0; stroke-dasharray: 7.0,7.0;"/><polygon fill="#707070" points="403.471,422.8201,412.6945,419.3664,407.0378,419.3162,407.0881,413.6595,403.471,422.8201" style="stroke: #707070; stroke-width: 1.0;"/><text fill="#000000" font-family="sans-serif" font-size="13" lengthAdjust="spacingAndGlyphs" textLength="63" x="468.5" y="374.02">«queries»</text><text fill="#000000" font-family="sans-serif" font-size="13" lengthAdjust="spacingAndGlyphs" textLength="61" x="469.5" y="389.1528">subscribe</text><!--link 28 to 14--><path d="M362.768,499.9821 C361.024,542.4311 362.245,612.9321 383.5,668.9531 C391.04,688.8251 425.028,727.1321 453.431,756.9491 " fill="none" id="28-14" style="stroke: #707070; stroke-width: 1.0; stroke-dasharray: 7.0,7.0;"/><polygon fill="#707070" points="457.22,760.9121,453.8915,751.6428,453.7646,757.2982,448.1092,757.1714,457.22,760.9121" style="stroke: #707070; stroke-width: 1.0;"/><text fill="#000000" font-family="sans-serif" font-size="13" lengthAdjust="spacingAndGlyphs" textLength="59" x="384.5" y="627.52">«events»</text><text fill="#000000" font-family="sans-serif" font-size="13" lengthAdjust="spacingAndGlyphs" textLength="34" x="397" y="642.6528">listen</text><!--link 28 to 16--><path d="M333.861,500.1041 C307.858,531.3641 273.431,573.5711 261.5,591.9531 C232.389,636.8041 219.075,646.9821 206.5,698.9531 C203.155,712.7761 203.131,717.1361 206.5,730.9531 C208.546,739.3431 211.832,747.8531 215.591,755.8741 " fill="none" id="28-16" style="stroke: #707070; stroke-width: 1.0; stroke-dasharray: 7.0,7.0;"/><polygon fill="#707070" points="217.985,760.8001,217.6484,750.957,215.7994,756.3031,210.4532,754.454,217.985,760.8001" style="stroke: #707070; stroke-width: 1.0;"/><text fill="#000000" font-family="sans-serif" font-size="13" lengthAdjust="spacingAndGlyphs" textLength="59" x="262.5" y="627.52">«events»</text><text fill="#000000" font-family="sans-serif" font-size="13" lengthAdjust="spacingAndGlyphs" textLength="34" x="275" y="642.6528">listen</text><!--link 28 to 20--><path d="M405.39,500.1511 C425.205,518.8121 449.547,541.6391 471.5,561.9531 C480.739,570.5021 490.671,579.6141 500.164,588.2871 " fill="none" id="28-20" style="stroke: #707070; stroke-width: 1.0; stroke-dasharray: 7.0,7.0;"/><polygon fill="#707070" points="503.918,591.7151,499.9683,582.6929,500.2254,588.3439,494.5744,588.6011,503.918,591.7151" style="stroke: #707070; stroke-width: 1.0;"/><text fill="#000000" font-family="sans-serif" font-size="13" lengthAdjust="spacingAndGlyphs" textLength="59" x="472.5" y="543.02">«events»</text><text fill="#000000" font-family="sans-serif" font-size="13" lengthAdjust="spacingAndGlyphs" textLength="34" x="485" y="558.1528">listen</text><!--link 28 to 18--><path d="M469.093,499.9881 C492.79,509.2411 517.705,519.5091 540.5,529.9531 C549.55,534.0991 851.383,690.4141 856.5,698.9531 C867.63,717.5271 859.242,738.6301 846.126,756.6071 " fill="none" id="28-18" style="stroke: #707070; stroke-width: 1.0; stroke-dasharray: 7.0,7.0;"/><polygon fill="#707070" points="843.076,760.6301,851.7014,755.8759,846.0972,756.6461,845.327,751.042,843.076,760.6301" style="stroke: #707070; stroke-width: 1.0;"/><text fill="#000000" font-family="sans-serif" font-size="13" lengthAdjust="spacingAndGlyphs" textLength="59" x="805.5" y="627.52">«events»</text><text fill="#000000" font-family="sans-serif" font-size="13" lengthAdjust="spacingAndGlyphs" textLength="34" x="818" y="642.6528">listen</text><!--
@startuml
scale max 2000x2000
title Digital restaurant system (monolith-rest) - Backend - Components

skinparam {
  shadowing false
  arrowColor #707070
  actorBorderColor #707070
  componentBorderColor #707070
  rectangleBorderColor #707070
  noteBackgroundColor #ffffff
  noteBorderColor #707070
}
actor "Courier" <<Person>> as 2 #dddddd
note right of 2
  hero, who delivers food
end note
actor "Customer" <<Person>> as 1 #dddddd
note right of 1
  orders food
end note
actor "Restaurant manager" <<Person>> as 3 #dddddd
note right of 3
  takes the order and organizes
  preparation
end note
package "Backend" <<Container>> {
  rectangle 14 <<Spring, Axon>> #dddddd [
    Courier
    - -
    domain component
  ]
  rectangle 16 <<Spring, Axon>> #dddddd [
    Customer
    - -
    domain component
  ]
  rectangle 20 <<Spring, Axon>> #dddddd [
    Order
    - -
    domain component
  ]
  rectangle 18 <<Spring, Axon>> #dddddd [
    Restaurant
    - -
    domain component
  ]
  rectangle 37 <<Spring MVC, Axon>> #dddddd [
    Web - Command side
    - -
    web component / adapter
  ]
  rectangle 28 <<Spring Data REST, Axon>> #dddddd [
    Web - Query side
    - -
    web component / adapter
  ]
}
2 .[#707070].> 37 : <<REST/HTTP>>\nclaim the order
2 .[#707070].> 28 : <<REST/HTTP>>\nread courier projections
1 .[#707070].> 37 : <<REST/HTTP>>\norder food
1 .[#707070].> 28 : <<REST/HTTP>>\nread customer projections
20 .[#707070].> 14 : <<events>>\nlisten
20 .[#707070].> 14 : <<commands>>\nsend
20 .[#707070].> 16 : <<events>>\nlisten
20 .[#707070].> 16 : <<commands>>\nsend
20 .[#707070].> 18 : <<events>>\nlisten
20 .[#707070].> 18 : <<commands>>\nsend
3 .[#707070].> 37 : <<REST/HTTP>>\nprepare the order
3 .[#707070].> 28 : <<REST/HTTP>>\nread restaurant projections
37 .[#707070].> 14 : <<commands>>\nsend
37 .[#707070].> 16 : <<commands>>\nsend
37 .[#707070].> 20 : <<commands>>\nsend
37 .[#707070].> 18 : <<commands>>\nsend
37 .[#707070].> 28 : <<queries>>\nsubscribe
28 .[#707070].> 14 : <<events>>\nlisten
28 .[#707070].> 16 : <<events>>\nlisten
28 .[#707070].> 20 : <<events>>\nlisten
28 .[#707070].> 18 : <<events>>\nlisten
@enduml

PlantUML version 1.2018.13(Mon Nov 26 17:11:51 UTC 2018)
(GPL source distribution)
Java Runtime: Java(TM) SE Runtime Environment
JVM: Java HotSpot(TM) 64-Bit Server VM
Java Version: 1.7.0_25-b15
Operating System: Linux
Default Encoding: UTF-8
Language: en
Country: US
--></g></svg>