<?xml version="1.0" encoding="UTF-8" standalone="no"?><svg xmlns="http://www.w3.org/2000/svg" xmlns:xlink="http://www.w3.org/1999/xlink" contentScriptType="application/ecmascript" contentStyleType="text/css" height="696px" preserveAspectRatio="none" style="width:1271px;height:696px;" version="1.1" viewBox="0 0 1271 696" width="1271px" zoomAndPan="magnify"><defs/><g><text fill="#000000" font-family="sans-serif" font-size="18" lengthAdjust="spacingAndGlyphs" textLength="543" x="367.5" y="16.708">Digital restaurant system (monolith) - Backend - Components</text><!--cluster Backend--><polygon fill="#FFFFFF" points="22,202.9531,95,202.9531,102,225.25,1095,225.25,1095,684.9531,22,684.9531,22,202.9531" style="stroke: #000000; stroke-width: 1.5;"/><line style="stroke: #000000; stroke-width: 1.5;" x1="22" x2="102" y1="225.25" y2="225.25"/><text fill="#000000" font-family="sans-serif" font-size="14" font-weight="bold" lengthAdjust="spacingAndGlyphs" textLength="67" x="26" y="217.9482">Backend</text><text fill="#000000" font-family="sans-serif" font-size="14" font-style="italic" lengthAdjust="spacingAndGlyphs" textLength="85" x="520" y="240.2451">«Container»</text><!--entity 14--><rect fill="#DDDDDD" height="76.8906" style="stroke: #707070; stroke-width: 1.5;" width="167" x="736.5" y="591.9531"/><text fill="#000000" font-family="sans-serif" font-size="14" font-style="italic" lengthAdjust="spacingAndGlyphs" textLength="106" x="767" y="614.9482">«Spring, Axon»</text><text fill="#000000" font-family="sans-serif" font-size="14" lengthAdjust="spacingAndGlyphs" textLength="50" x="746.5" y="631.2451">Courier</text><line style="stroke: #707070; stroke-width: 1.0;" x1="737.5" x2="902.5" y1="634.5469" y2="634.5469"/><text fill="#000000" font-family="sans-serif" font-size="14" lengthAdjust="spacingAndGlyphs" textLength="135" x="752.5" y="651.542">domain component</text><!--entity 16--><rect fill="#DDDDDD" height="76.8906" style="stroke: #707070; stroke-width: 1.5;" width="167" x="63.5" y="591.9531"/><text fill="#000000" font-family="sans-serif" font-size="14" font-style="italic" lengthAdjust="spacingAndGlyphs" textLength="106" x="94" y="614.9482">«Spring, Axon»</text><text fill="#000000" font-family="sans-serif" font-size="14" lengthAdjust="spacingAndGlyphs" textLength="68" x="73.5" y="631.2451">Customer</text><line style="stroke: #707070; stroke-width: 1.0;" x1="64.5" x2="229.5" y1="634.5469" y2="634.5469"/><text fill="#000000" font-family="sans-serif" font-size="14" lengthAdjust="spacingAndGlyphs" textLength="135" x="79.5" y="651.542">domain component</text><!--entity 20--><rect fill="#DDDDDD" height="76.8906" style="stroke: #707070; stroke-width: 1.5;" width="167" x="460.5" y="422.9531"/><text fill="#000000" font-family="sans-serif" font-size="14" font-style="italic" lengthAdjust="spacingAndGlyphs" textLength="106" x="491" y="445.9482">«Spring, Axon»</text><text fill="#000000" font-family="sans-serif" font-size="14" lengthAdjust="spacingAndGlyphs" textLength="39" x="470.5" y="462.2451">Order</text><line style="stroke: #707070; stroke-width: 1.0;" x1="461.5" x2="626.5" y1="465.5469" y2="465.5469"/><text fill="#000000" font-family="sans-serif" font-size="14" lengthAdjust="spacingAndGlyphs" textLength="135" x="476.5" y="482.542">domain component</text><!--entity 18--><rect fill="#DDDDDD" height="76.8906" style="stroke: #707070; stroke-width: 1.5;" width="167" x="371.5" y="591.9531"/><text fill="#000000" font-family="sans-serif" font-size="14" font-style="italic" lengthAdjust="spacingAndGlyphs" textLength="106" x="402" y="614.9482">«Spring, Axon»</text><text fill="#000000" font-family="sans-serif" font-size="14" lengthAdjust="spacingAndGlyphs" textLength="76" x="381.5" y="631.2451">Restaurant</text><line style="stroke: #707070; stroke-width: 1.0;" x1="372.5" x2="537.5" y1="634.5469" y2="634.5469"/><text fill="#000000" font-family="sans-serif" font-size="14" lengthAdjust="spacingAndGlyphs" textLength="135" x="387.5" y="651.542">domain component</text><!--entity 28--><rect fill="#DDDDDD" height="76.8906" style="stroke: #707070; stroke-width: 1.5;" width="211" x="592.5" y="253.9531"/><text fill="#000000" font-family="sans-serif" font-size="14" font-style="italic" lengthAdjust="spacingAndGlyphs" textLength="142" x="627" y="276.9482">«Spring MVC, Axon»</text><text fill="#000000" font-family="sans-serif" font-size="14" lengthAdjust="spacingAndGlyphs" textLength="148" x="602.5" y="293.2451">Web - Command side</text><line style="stroke: #707070; stroke-width: 1.0;" x1="593.5" x2="802.5" y1="296.5469" y2="296.5469"/><text fill="#000000" font-family="sans-serif" font-size="14" lengthAdjust="spacingAndGlyphs" textLength="179" x="608.5" y="313.542">web component / adapter</text><!--entity 36--><rect fill="#DDDDDD" height="76.8906" style="stroke: #707070; stroke-width: 1.5;" width="211" x="258.5" y="253.9531"/><text fill="#000000" font-family="sans-serif" font-size="14" font-style="italic" lengthAdjust="spacingAndGlyphs" textLength="183" x="272.5" y="276.9482">«Spring Data REST, Axon»</text><text fill="#000000" font-family="sans-serif" font-size="14" lengthAdjust="spacingAndGlyphs" textLength="118" x="268.5" y="293.2451">Web - Query side</text><line style="stroke: #707070; stroke-width: 1.0;" x1="259.5" x2="468.5" y1="296.5469" y2="296.5469"/><text fill="#000000" font-family="sans-serif" font-size="14" lengthAdjust="spacingAndGlyphs" textLength="179" x="274.5" y="313.542">web component / adapter</text><!--entity 2--><ellipse cx="218" cy="55.25" fill="#DDDDDD" rx="8" ry="8" style="stroke: #707070; stroke-width: 2.0;"/><path d="M218,63.25 L218,90.25 M205,71.25 L231,71.25 M218,90.25 L205,105.25 M218,90.25 L231,105.25 " fill="none" style="stroke: #707070; stroke-width: 2.0;"/><text fill="#000000" font-family="sans-serif" font-size="14" lengthAdjust="spacingAndGlyphs" textLength="50" x="193" y="121.2451">Courier</text><text fill="#000000" font-family="sans-serif" font-size="14" font-style="italic" lengthAdjust="spacingAndGlyphs" textLength="65" x="185.5" y="41.9482">«Person»</text><path d="M286,64.4531 L286,72.9531 L250.656,76.9531 L286,80.9531 L286,89.5859 A0,0 0 0 0 286,89.5859 L454,89.5859 A0,0 0 0 0 454,89.5859 L454,74.4531 L444,64.4531 L286,64.4531 A0,0 0 0 0 286,64.4531 " fill="#FFFFFF" style="stroke: #707070; stroke-width: 1.0;"/><path d="M444,64.4531 L444,74.4531 L454,74.4531 L444,64.4531 " fill="#FFFFFF" style="stroke: #707070; stroke-width: 1.0;"/><text fill="#000000" font-family="sans-serif" font-size="13" lengthAdjust="spacingAndGlyphs" textLength="147" x="292" y="81.52">hero, who delivers food</text><!--entity 1--><ellipse cx="622" cy="55.25" fill="#DDDDDD" rx="8" ry="8" style="stroke: #707070; stroke-width: 2.0;"/><path d="M622,63.25 L622,90.25 M609,71.25 L635,71.25 M622,90.25 L609,105.25 M622,90.25 L635,105.25 " fill="none" style="stroke: #707070; stroke-width: 2.0;"/><text fill="#000000" font-family="sans-serif" font-size="14" lengthAdjust="spacingAndGlyphs" textLength="68" x="588" y="121.2451">Customer</text><text fill="#000000" font-family="sans-serif" font-size="14" font-style="italic" lengthAdjust="spacingAndGlyphs" textLength="65" x="589.5" y="41.9482">«Person»</text><path d="M691,64.4531 L691,72.9531 L656.438,76.9531 L691,80.9531 L691,89.5859 A0,0 0 0 0 691,89.5859 L785,89.5859 A0,0 0 0 0 785,89.5859 L785,74.4531 L775,64.4531 L691,64.4531 A0,0 0 0 0 691,64.4531 " fill="#FFFFFF" style="stroke: #707070; stroke-width: 1.0;"/><path d="M775,64.4531 L775,74.4531 L785,74.4531 L775,64.4531 " fill="#FFFFFF" style="stroke: #707070; stroke-width: 1.0;"/><text fill="#000000" font-family="sans-serif" font-size="13" lengthAdjust="spacingAndGlyphs" textLength="73" x="697" y="81.52">orders food</text><!--entity 3--><ellipse cx="941" cy="55.25" fill="#DDDDDD" rx="8" ry="8" style="stroke: #707070; stroke-width: 2.0;"/><path d="M941,63.25 L941,90.25 M928,71.25 L954,71.25 M941,90.25 L928,105.25 M941,90.25 L954,105.25 " fill="none" style="stroke: #707070; stroke-width: 2.0;"/><text fill="#000000" font-family="sans-serif" font-size="14" lengthAdjust="spacingAndGlyphs" textLength="141" x="870.5" y="121.2451">Restaurant manager</text><text fill="#000000" font-family="sans-serif" font-size="14" font-style="italic" lengthAdjust="spacingAndGlyphs" textLength="65" x="908.5" y="41.9482">«Person»</text><path d="M1046.5,56.9531 L1046.5,72.9531 L1011.8,76.9531 L1046.5,80.9531 L1046.5,97.2188 A0,0 0 0 0 1046.5,97.2188 L1259.5,97.2188 A0,0 0 0 0 1259.5,97.2188 L1259.5,66.9531 L1249.5,56.9531 L1046.5,56.9531 A0,0 0 0 0 1046.5,56.9531 " fill="#FFFFFF" style="stroke: #707070; stroke-width: 1.0;"/><path d="M1249.5,56.9531 L1249.5,66.9531 L1259.5,66.9531 L1249.5,56.9531 " fill="#FFFFFF" style="stroke: #707070; stroke-width: 1.0;"/><text fill="#000000" font-family="sans-serif" font-size="13" lengthAdjust="spacingAndGlyphs" textLength="192" x="1052.5" y="74.02">takes the order and organizes</text><text fill="#000000" font-family="sans-serif" font-size="13" lengthAdjust="spacingAndGlyphs" textLength="74" x="1052.5" y="89.1528">preparation</text><!--link 2 to 28--><path d="M250.726,114.1831 C256.099,118.4311 261.915,122.2191 268,124.9531 C403.141,185.6761 471.362,81.4501 600,154.9531 C619.594,166.1491 651.297,213.6661 673.317,249.5141 " fill="none" id="2-28" style="stroke: #707070; stroke-width: 1.0; stroke-dasharray: 7.0,7.0;"/><polygon fill="#707070" points="675.953,253.8251,674.6702,244.0602,673.3445,249.5595,667.8452,248.2338,675.953,253.8251" style="stroke: #707070; stroke-width: 1.0;"/><text fill="#000000" font-family="sans-serif" font-size="13" lengthAdjust="spacingAndGlyphs" textLength="134" x="632" y="168.02">«HTTP, WebSockets»</text><text fill="#000000" font-family="sans-serif" font-size="13" lengthAdjust="spacingAndGlyphs" textLength="97" x="650.5" y="183.1528">claim the order</text><!--link 2 to 36--><path d="M185.278,82.3681 C117.102,92.9311 -30.0626,123.6301 17,186.9531 C45.5457,225.3621 162.697,255.0231 253.068,272.7711 " fill="none" id="2-36" style="stroke: #707070; stroke-width: 1.0; stroke-dasharray: 7.0,7.0;"/><polygon fill="#707070" points="258.164,273.7651,250.0962,268.1161,253.2565,272.8079,248.5647,275.9682,258.164,273.7651" style="stroke: #707070; stroke-width: 1.0;"/><text fill="#000000" font-family="sans-serif" font-size="13" lengthAdjust="spacingAndGlyphs" textLength="134" x="26.5" y="168.02">«HTTP, WebSockets»</text><text fill="#000000" font-family="sans-serif" font-size="13" lengthAdjust="spacingAndGlyphs" textLength="151" x="18" y="183.1528">read courier projections</text><!--link 1 to 28--><path d="M656.285,113.3551 C661.591,117.6711 667.233,121.6971 673,124.9531 C714.519,148.3961 747.385,116.8141 776,154.9531 C798.496,184.9361 774.408,222.0331 747.243,249.9821 " fill="none" id="1-28" style="stroke: #707070; stroke-width: 1.0; stroke-dasharray: 7.0,7.0;"/><polygon fill="#707070" points="743.569,253.6901,752.7449,250.1119,747.0881,250.1382,747.0618,244.4814,743.569,253.6901" style="stroke: #707070; stroke-width: 1.0;"/><text fill="#000000" font-family="sans-serif" font-size="13" lengthAdjust="spacingAndGlyphs" textLength="134" x="785" y="168.02">«HTTP, WebSockets»</text><text fill="#000000" font-family="sans-serif" font-size="13" lengthAdjust="spacingAndGlyphs" textLength="66" x="819" y="183.1528">order food</text><!--link 1 to 36--><path d="M587.702,90.6521 C557.41,101.3781 511.832,116.3311 471,124.9531 C413.878,137.0151 248.854,111.3771 210,154.9531 C178.502,190.2791 220.843,225.5981 269.037,251.4561 " fill="none" id="1-36" style="stroke: #707070; stroke-width: 1.0; stroke-dasharray: 7.0,7.0;"/><polygon fill="#707070" points="273.717,253.9281,267.6276,246.1874,269.296,251.5926,263.8908,253.261,273.717,253.9281" style="stroke: #707070; stroke-width: 1.0;"/><text fill="#000000" font-family="sans-serif" font-size="13" lengthAdjust="spacingAndGlyphs" textLength="134" x="228" y="168.02">«HTTP, WebSockets»</text><text fill="#000000" font-family="sans-serif" font-size="13" lengthAdjust="spacingAndGlyphs" textLength="168" x="211" y="183.1528">read customer projections</text><!--link 20 to 14--><path d="M627.677,491.1091 C676.358,507.9611 729.115,526.6131 734,529.9531 C756.254,545.1681 776.274,567.5141 791.387,587.1761 " fill="none" id="20-14" style="stroke: #707070; stroke-width: 1.0; stroke-dasharray: 7.0,7.0;"/><polygon fill="#707070" points="794.731,591.5871,792.48,581.999,791.7098,587.6031,786.1056,586.8329,794.731,591.5871" style="stroke: #707070; stroke-width: 1.0;"/><text fill="#000000" font-family="sans-serif" font-size="13" lengthAdjust="spacingAndGlyphs" textLength="59" x="770" y="543.02">«events»</text><text fill="#000000" font-family="sans-serif" font-size="13" lengthAdjust="spacingAndGlyphs" textLength="34" x="782.5" y="558.1528">listen</text><!--link 20 to 14--><path d="M571.602,500.1591 C588.304,520.7601 611.14,545.3771 636,561.9531 C664.754,581.1251 699.654,595.7091 731.298,606.3281 " fill="none" id="20-14" style="stroke: #707070; stroke-width: 1.0; stroke-dasharray: 7.0,7.0;"/><polygon fill="#707070" points="736.348,607.9984,729.0592,601.3747,731.6009,606.4284,726.5472,608.97,736.348,607.9984" style="stroke: #707070; stroke-width: 1.0;"/><text fill="#000000" font-family="sans-serif" font-size="13" lengthAdjust="spacingAndGlyphs" textLength="88" x="637" y="543.02">«commands»</text><text fill="#000000" font-family="sans-serif" font-size="13" lengthAdjust="spacingAndGlyphs" textLength="31" x="665.5" y="558.1528">send</text><!--link 20 to 16--><path d="M460.295,492.8421 C451.16,495.5251 441.936,497.9691 433,499.9531 C374.281,512.9871 207.75,488.6761 164,529.9531 C148.841,544.2551 144.098,566.7411 143.364,586.7211 " fill="none" id="20-16" style="stroke: #707070; stroke-width: 1.0; stroke-dasharray: 7.0,7.0;"/><polygon fill="#707070" points="143.26,591.7401,147.4469,582.8255,143.3643,586.7412,139.4486,582.6586,143.26,591.7401" style="stroke: #707070; stroke-width: 1.0;"/><text fill="#000000" font-family="sans-serif" font-size="13" lengthAdjust="spacingAndGlyphs" textLength="59" x="165" y="543.02">«events»</text><text fill="#000000" font-family="sans-serif" font-size="13" lengthAdjust="spacingAndGlyphs" textLength="34" x="177.5" y="558.1528">listen</text><!--link 20 to 16--><path d="M460.35,491.7581 C451.163,494.6641 441.912,497.4571 433,499.9531 C374.231,516.4091 355.214,506.1911 299,529.9531 C263.419,544.9931 227.092,568.4171 198.878,588.7601 " fill="none" id="20-16" style="stroke: #707070; stroke-width: 1.0; stroke-dasharray: 7.0,7.0;"/><polygon fill="#707070" points="194.775,591.7371,204.4089,589.6905,198.8223,588.8013,199.7115,583.2147,194.775,591.7371" style="stroke: #707070; stroke-width: 1.0;"/><text fill="#000000" font-family="sans-serif" font-size="13" lengthAdjust="spacingAndGlyphs" textLength="88" x="300" y="543.02">«commands»</text><text fill="#000000" font-family="sans-serif" font-size="13" lengthAdjust="spacingAndGlyphs" textLength="31" x="328.5" y="558.1528">send</text><!--link 20 to 18--><path d="M460.124,493.3991 C433.726,504.9501 409.473,518.1271 402,529.9531 C390.336,548.4121 398.904,569.6791 412.285,587.8011 " fill="none" id="20-18" style="stroke: #707070; stroke-width: 1.0; stroke-dasharray: 7.0,7.0;"/><polygon fill="#707070" points="415.397,591.8561,413.0913,582.281,412.3531,587.8895,406.7446,587.1513,415.397,591.8561" style="stroke: #707070; stroke-width: 1.0;"/><text fill="#000000" font-family="sans-serif" font-size="13" lengthAdjust="spacingAndGlyphs" textLength="59" x="403" y="543.02">«events»</text><text fill="#000000" font-family="sans-serif" font-size="13" lengthAdjust="spacingAndGlyphs" textLength="34" x="415.5" y="558.1528">listen</text><!--link 20 to 18--><path d="M520.149,500.2751 C514.353,509.8531 508.302,520.1941 503,529.9531 C493.041,548.2841 482.879,569.0011 474.485,586.7671 " fill="none" id="20-18" style="stroke: #707070; stroke-width: 1.0; stroke-dasharray: 7.0,7.0;"/><polygon fill="#707070" points="472.166,591.6951,479.6169,585.2543,474.2946,587.1708,472.378,581.8485,472.166,591.6951" style="stroke: #707070; stroke-width: 1.0;"/><text fill="#000000" font-family="sans-serif" font-size="13" lengthAdjust="spacingAndGlyphs" textLength="88" x="504" y="543.02">«commands»</text><text fill="#000000" font-family="sans-serif" font-size="13" lengthAdjust="spacingAndGlyphs" textLength="31" x="532.5" y="558.1528">send</text><!--link 3 to 28--><path d="M945.277,125.1731 C944.807,145.8841 940.826,169.4171 928,186.9531 C899.332,226.1461 852.442,250.9841 808.452,266.5541 " fill="none" id="3-28" style="stroke: #707070; stroke-width: 1.0; stroke-dasharray: 7.0,7.0;"/><polygon fill="#707070" points="803.656,268.2191,813.4701,269.0455,808.3793,266.579,810.8459,261.4882,803.656,268.2191" style="stroke: #707070; stroke-width: 1.0;"/><text fill="#000000" font-family="sans-serif" font-size="13" lengthAdjust="spacingAndGlyphs" textLength="134" x="942" y="168.02">«HTTP, WebSockets»</text><text fill="#000000" font-family="sans-serif" font-size="13" lengthAdjust="spacingAndGlyphs" textLength="113" x="952.5" y="183.1528">prepare the order</text><!--link 3 to 36--><path d="M870.321,105.8231 C848.992,113.1941 825.312,120.3651 803,124.9531 C718.51,142.3271 485.079,103.2961 416,154.9531 C386.602,176.9371 373.824,217.7031 368.27,248.9821 " fill="none" id="3-36" style="stroke: #707070; stroke-width: 1.0; stroke-dasharray: 7.0,7.0;"/><polygon fill="#707070" points="367.439,253.9161,372.8777,245.7051,368.2691,248.9855,364.9887,244.3769,367.439,253.9161" style="stroke: #707070; stroke-width: 1.0;"/><text fill="#000000" font-family="sans-serif" font-size="13" lengthAdjust="spacingAndGlyphs" textLength="134" x="437" y="168.02">«HTTP, WebSockets»</text><text fill="#000000" font-family="sans-serif" font-size="13" lengthAdjust="spacingAndGlyphs" textLength="174" x="417" y="183.1528">read restaurant projections</text><!--link 28 to 14--><path d="M803.708,325.8331 C850.142,345.9101 900.132,376.8931 927,422.9531 C959.684,478.9841 909.209,546.0141 867.075,588.1711 " fill="none" id="28-14" style="stroke: #707070; stroke-width: 1.0; stroke-dasharray: 7.0,7.0;"/><polygon fill="#707070" points="863.286,591.9201,872.4982,588.4366,866.8415,588.4046,866.8735,582.7479,863.286,591.9201" style="stroke: #707070; stroke-width: 1.0;"/><text fill="#000000" font-family="sans-serif" font-size="13" lengthAdjust="spacingAndGlyphs" textLength="88" x="938" y="458.52">«commands»</text><text fill="#000000" font-family="sans-serif" font-size="13" lengthAdjust="spacingAndGlyphs" textLength="31" x="966.5" y="473.6528">send</text><!--link 28 to 16--><path d="M592.287,309.5261 C499.873,327.0121 364.635,361.1341 261,422.9531 C245.587,432.1471 147.373,513.5901 140,529.9531 C132.131,547.4151 132.369,568.3611 135.176,586.5211 " fill="none" id="28-16" style="stroke: #707070; stroke-width: 1.0; stroke-dasharray: 7.0,7.0;"/><polygon fill="#707070" points="136.031,591.5641,138.4679,582.0215,135.194,586.6347,130.5808,583.3608,136.031,591.5641" style="stroke: #707070; stroke-width: 1.0;"/><text fill="#000000" font-family="sans-serif" font-size="13" lengthAdjust="spacingAndGlyphs" textLength="88" x="262" y="458.52">«commands»</text><text fill="#000000" font-family="sans-serif" font-size="13" lengthAdjust="spacingAndGlyphs" textLength="31" x="290.5" y="473.6528">send</text><!--link 28 to 20--><path d="M633.459,330.9621 C621.158,339.8361 609.015,349.9561 599,360.9531 C583.808,377.6351 571.217,399.2581 561.934,418.0841 " fill="none" id="28-20" style="stroke: #707070; stroke-width: 1.0; stroke-dasharray: 7.0,7.0;"/><polygon fill="#707070" points="559.645,422.8051,567.1703,416.4514,561.8261,418.3059,559.9715,412.9617,559.645,422.8051" style="stroke: #707070; stroke-width: 1.0;"/><text fill="#000000" font-family="sans-serif" font-size="13" lengthAdjust="spacingAndGlyphs" textLength="88" x="600" y="374.02">«commands»</text><text fill="#000000" font-family="sans-serif" font-size="13" lengthAdjust="spacingAndGlyphs" textLength="31" x="628.5" y="389.1528">send</text><!--link 28 to 18--><path d="M703.472,331.2181 C713.687,403.0351 734.014,552.9861 727,561.9531 C704.423,590.8181 614.24,609.0842 543.828,619.231 " fill="none" id="28-18" style="stroke: #707070; stroke-width: 1.0; stroke-dasharray: 7.0,7.0;"/><polygon fill="#707070" points="538.794,619.9476,548.2685,622.6373,543.7439,619.2419,547.1393,614.7174,538.794,619.9476" style="stroke: #707070; stroke-width: 1.0;"/><text fill="#000000" font-family="sans-serif" font-size="13" lengthAdjust="spacingAndGlyphs" textLength="88" x="726" y="458.52">«commands»</text><text fill="#000000" font-family="sans-serif" font-size="13" lengthAdjust="spacingAndGlyphs" textLength="31" x="754.5" y="473.6528">send</text><!--link 36 to 14--><path d="M469.751,312.9111 C547.609,327.7471 646.507,347.8031 686,360.9531 C747.878,381.5571 779.263,371.2381 819,422.9531 C854.829,469.5821 845.156,541.2311 833.58,586.6961 " fill="none" id="36-14" style="stroke: #707070; stroke-width: 1.0; stroke-dasharray: 7.0,7.0;"/><polygon fill="#707070" points="832.309,591.5601,838.4522,583.862,833.5717,586.7222,830.7115,581.8417,832.309,591.5601" style="stroke: #707070; stroke-width: 1.0;"/><text fill="#000000" font-family="sans-serif" font-size="13" lengthAdjust="spacingAndGlyphs" textLength="59" x="844" y="458.52">«events»</text><text fill="#000000" font-family="sans-serif" font-size="13" lengthAdjust="spacingAndGlyphs" textLength="34" x="856.5" y="473.6528">listen</text><!--link 36 to 16--><path d="M258.399,314.1711 C199.446,331.9861 131.662,364.4821 100,422.9531 C71.7061,475.2051 97.8668,543.7811 121.004,587.2471 " fill="none" id="36-16" style="stroke: #707070; stroke-width: 1.0; stroke-dasharray: 7.0,7.0;"/><polygon fill="#707070" points="123.519,591.8961,122.7552,582.0769,121.1401,587.4983,115.7187,585.8832,123.519,591.8961" style="stroke: #707070; stroke-width: 1.0;"/><text fill="#000000" font-family="sans-serif" font-size="13" lengthAdjust="spacingAndGlyphs" textLength="59" x="101" y="458.52">«events»</text><text fill="#000000" font-family="sans-serif" font-size="13" lengthAdjust="spacingAndGlyphs" textLength="34" x="113.5" y="473.6528">listen</text><!--link 36 to 20--><path d="M404.845,331.3481 C433.037,357.5041 470.512,392.2731 499.47,419.1391 " fill="none" id="36-20" style="stroke: #707070; stroke-width: 1.0; stroke-dasharray: 7.0,7.0;"/><polygon fill="#707070" points="503.317,422.7081,499.4404,413.6543,499.6518,419.3072,493.9989,419.5186,503.317,422.7081" style="stroke: #707070; stroke-width: 1.0;"/><text fill="#000000" font-family="sans-serif" font-size="13" lengthAdjust="spacingAndGlyphs" textLength="59" x="472" y="374.02">«events»</text><text fill="#000000" font-family="sans-serif" font-size="13" lengthAdjust="spacingAndGlyphs" textLength="34" x="484.5" y="389.1528">listen</text><!--link 36 to 18--><path d="M359.669,331.1681 C355.155,385.1431 353.056,486.2521 389,561.9531 C393.41,571.2411 399.622,580.0311 406.488,588.0081 " fill="none" id="36-18" style="stroke: #707070; stroke-width: 1.0; stroke-dasharray: 7.0,7.0;"/><polygon fill="#707070" points="409.907,591.8581,406.9218,582.4726,406.587,588.1195,400.94,587.7846,409.907,591.8581" style="stroke: #707070; stroke-width: 1.0;"/><text fill="#000000" font-family="sans-serif" font-size="13" lengthAdjust="spacingAndGlyphs" textLength="59" x="369" y="458.52">«events»</text><text fill="#000000" font-family="sans-serif" font-size="13" lengthAdjust="spacingAndGlyphs" textLength="34" x="381.5" y="473.6528">listen</text><!--
@startuml
scale max 2000x2000
title Digital restaurant system (monolith) - Backend - Components

skinparam {
  shadowing false
  arrowColor #707070
  actorBorderColor #707070
  componentBorderColor #707070
  rectangleBorderColor #707070
  noteBackgroundColor #ffffff
  noteBorderColor #707070
}
actor "Courier" <<Person>> as 2 #dddddd
note right of 2
  hero, who delivers food
end note
actor "Customer" <<Person>> as 1 #dddddd
note right of 1
  orders food
end note
actor "Restaurant manager" <<Person>> as 3 #dddddd
note right of 3
  takes the order and organizes
  preparation
end note
package "Backend" <<Container>> {
  rectangle 14 <<Spring, Axon>> #dddddd [
    Courier
    - -
    domain component
  ]
  rectangle 16 <<Spring, Axon>> #dddddd [
    Customer
    - -
    domain component
  ]
  rectangle 20 <<Spring, Axon>> #dddddd [
    Order
    - -
    domain component
  ]
  rectangle 18 <<Spring, Axon>> #dddddd [
    Restaurant
    - -
    domain component
  ]
  rectangle 28 <<Spring MVC, Axon>> #dddddd [
    Web - Command side
    - -
    web component / adapter
  ]
  rectangle 36 <<Spring Data REST, Axon>> #dddddd [
    Web - Query side
    - -
    web component / adapter
  ]
}
2 .[#707070].> 28 : <<HTTP, WebSockets>>\nclaim the order
2 .[#707070].> 36 : <<HTTP, WebSockets>>\nread courier projections
1 .[#707070].> 28 : <<HTTP, WebSockets>>\norder food
1 .[#707070].> 36 : <<HTTP, WebSockets>>\nread customer projections
20 .[#707070].> 14 : <<events>>\nlisten
20 .[#707070].> 14 : <<commands>>\nsend
20 .[#707070].> 16 : <<events>>\nlisten
20 .[#707070].> 16 : <<commands>>\nsend
20 .[#707070].> 18 : <<events>>\nlisten
20 .[#707070].> 18 : <<commands>>\nsend
3 .[#707070].> 28 : <<HTTP, WebSockets>>\nprepare the order
3 .[#707070].> 36 : <<HTTP, WebSockets>>\nread restaurant projections
28 .[#707070].> 14 : <<commands>>\nsend
28 .[#707070].> 16 : <<commands>>\nsend
28 .[#707070].> 20 : <<commands>>\nsend
28 .[#707070].> 18 : <<commands>>\nsend
36 .[#707070].> 14 : <<events>>\nlisten
36 .[#707070].> 16 : <<events>>\nlisten
36 .[#707070].> 20 : <<events>>\nlisten
36 .[#707070].> 18 : <<events>>\nlisten
@enduml

PlantUML version 1.2018.13(Mon Nov 26 17:11:51 UTC 2018)
(GPL source distribution)
Java Runtime: Java(TM) SE Runtime Environment
JVM: Java HotSpot(TM) 64-Bit Server VM
Java Version: 1.7.0_25-b15
Operating System: Linux
Default Encoding: UTF-8
Language: en
Country: US
--></g></svg>